<svg width="150" height="150" viewBox="0 0 150 150" fill="none" xmlns="http://www.w3.org/2000/svg">
<circle cx="75" cy="75" r="70" fill="#7CCD06" stroke="#426412" stroke-width="10"/>
<path d="M39.6929 75.1538L50.7698 70.3077V57.8462L63.2312 64.7693L74.3081 59.9231L50.7698 46.077L39.6929 51.6155V75.1538Z" fill="white"/>
<path d="M111 51.6154L101.307 46.7693L88.846 53.6923L97.1536 57.8462L39 84.8461V98.6922L48 102.846L61.1538 97.3076L52.8461 92.4614L111 66.1538V51.6154Z" fill="white"/>
<path d="M111 97.3075V75.1537L100.615 79.3075V91.769L87.4616 85.5383L76.3848 91.769L100.615 103.538L111 97.3075Z" fill="white"/>
<path d="M75.6928 104.231L69.4621 101.462L57.6929 107L75.6928 116.692L93.6927 107L83.3082 101.462L75.6928 104.231Z" fill="white"/>
<path d="M75.6928 33.6155L57.6929 42.6154L68.7698 49.5385L75.6928 46.077L81.2312 49.5385L93.6927 44.0001L75.6928 33.6155Z" fill="white"/>
</svg>
