<svg width="150" height="150" viewBox="0 0 150 150" fill="none" xmlns="http://www.w3.org/2000/svg">
<circle cx="75" cy="75" r="70" fill="#7CCD06" stroke="#426412" stroke-width="10"/>
<path d="M91.6068 105.235L73.7766 79.3288L71.2375 75.6412L50.5476 45.5806H59.4475L76.1796 69.8913L78.7186 73.579L100.507 105.235H91.6068ZM104.186 102.704L81.7286 70.0781L79.1897 66.3881L63.1251 43.0496L61.7937 41.1155H42.0537L46.8679 48.1111L68.2275 79.146L70.7666 82.832L87.9287 107.768L89.2603 109.7H109L104.186 102.704Z" fill="white"/>
<path d="M71.2374 75.6412L73.7766 79.3288L70.7666 82.832L47.6716 109.7H41.9766L68.2275 79.146L71.2374 75.6412Z" fill="white"/>
<path d="M106.624 41.1155L81.7287 70.0781L78.7186 73.579L76.1797 69.8913L79.1897 66.3881L96.0534 46.7598L100.929 41.1155H106.624Z" fill="white"/>
</svg>
