<svg width="150" height="150" viewBox="0 0 150 150" fill="none" xmlns="http://www.w3.org/2000/svg">
<circle cx="75" cy="75" r="70" fill="#7CCD06" stroke="#426412" stroke-width="10"/>
<path d="M109.29 44.9007C109.016 44.0937 108.689 43.8813 108.178 43.6796C107.061 43.2654 105.17 43.8919 105.17 43.8919C105.17 43.8919 38.194 67.9753 34.3677 70.6406C33.5439 71.2141 33.2678 71.5539 33.1309 71.9468C32.4695 73.8369 34.5302 74.6758 34.5302 74.6758L51.7929 80.3037C51.7929 80.3037 52.4363 80.3993 52.6656 80.2506C56.5928 77.7658 92.1768 55.2965 94.229 54.5426C94.5528 54.447 94.7928 54.5532 94.7291 54.7762C93.9073 57.6645 63.001 85.1353 63.001 85.1353C63.001 85.1353 62.8832 85.2839 62.8089 85.4538L62.7685 85.4326L61.158 102.561C61.158 102.561 60.4827 107.806 65.7285 102.561C69.4294 98.8547 73.0105 95.754 74.8026 94.2568C80.7384 98.3556 87.1264 102.89 89.8836 105.258C91.268 106.447 92.4263 106.638 93.3797 106.606C95.9967 106.511 96.7271 103.633 96.7271 103.633C96.7271 103.633 108.932 54.5001 109.34 47.9165C109.38 47.2687 109.435 46.8652 109.44 46.4192C109.447 45.8033 109.39 45.1874 109.29 44.9007Z" fill="white"/>
</svg>
